<svg xmlns="http://www.w3.org/2000/svg" width="220" height="64" viewBox="0 0 220 64" role="img" aria-label="AgroSmart">
  <defs>
    <linearGradient id="g" x1="0" y1="0" x2="1" y2="1">
      <stop offset="0" stop-color="#2f5f3a"/>
      <stop offset="1" stop-color="#c86b2a"/>
    </linearGradient>
  </defs>
  <g fill="none" fill-rule="evenodd">
    <g transform="translate(0,6)">
      <path d="M26 2c10.8 0 20 8.8 20 19.6C46 38 30.7 48 26 50 21.3 48 6 38 6 21.6 6 10.8 15.2 2 26 2Z" fill="url(#g)" opacity="0.95"/>
      <path d="M26 13c-6 0-10.8 4.8-10.8 10.8 0 7 7.5 12.7 10.8 13.9 3.3-1.2 10.8-6.9 10.8-13.9C36.8 17.8 32 13 26 13Z" fill="#fff" opacity="0.22"/>
      <path d="M30.5 16.5c-5.5.8-9.4 4.1-11.6 9.8-.2.6-.8 1-1.4.9-.7-.1-1.2-.8-1.1-1.5 2.5-7 7.6-11.1 14.9-12.1.7-.1 1.3.4 1.4 1.1.1.7-.4 1.3-1.2 1.8Z" fill="#141c15" opacity="0.18"/>
      <path d="M23 32c2.8-3.3 6.8-5 12-5-1 6-4.8 10.7-11.5 14.1C22.4 37.5 22.2 34.3 23 32Z" fill="#141c15" opacity="0.18"/>
    </g>
    <g transform="translate(60,18)" fill="#141c15">
      <text x="0" y="22" font-family="Georgia, 'Times New Roman', serif" font-size="26" font-weight="700" letter-spacing="-0.4">AgroSmart</text>
    </g>
  </g>
</svg>

